HIERARCHY
ROOT root
{
	OFFSET 0.000000 0.000000 0.000000
	CHANNELS 6 Xposition Yposition Zposition Zrotation Yrotation Xrotation
	JOINT lhip
	{
		OFFSET 0.058581 -0.082280 -0.017664
		CHANNELS 3 Zrotation Yrotation Xrotation
		JOINT lknee
		{
			OFFSET 0.043451 -0.386469 0.008037
			CHANNELS 3 Zrotation Yrotation Xrotation
			JOINT lankle
			{
				OFFSET -0.014790 -0.426874 -0.037428
				CHANNELS 3 Zrotation Yrotation Xrotation
				JOINT ltoe
				{
					OFFSET 0.041054 -0.060286 0.122042
					CHANNELS 3 Zrotation Yrotation Xrotation
					End Site
					{
						OFFSET 0.000000 0.000000 0.000000
					}
				}
			}
		}
	}
	JOINT rhip
	{
		OFFSET -0.060310 -0.090513 -0.013543
		CHANNELS 3 Zrotation Yrotation Xrotation
		JOINT rknee
		{
			OFFSET -0.043257 -0.383688 -0.004843
			CHANNELS 3 Zrotation Yrotation Xrotation
			JOINT rankle
			{
				OFFSET 0.019056 -0.420046 -0.034562
				CHANNELS 3 Zrotation Yrotation Xrotation
				JOINT rtoe
				{
					OFFSET -0.034840 -0.062106 0.130323
					CHANNELS 3 Zrotation Yrotation Xrotation
					End Site
					{
						OFFSET 0.000000 0.000000 0.000000
					}
				}
			}
		}
	}
	JOINT lowerback
	{
		OFFSET 0.004439 0.124404 -0.038385
		CHANNELS 3 Zrotation Yrotation Xrotation
		JOINT upperback
		{
			OFFSET 0.004488 0.137956 0.026820
			CHANNELS 3 Zrotation Yrotation Xrotation
			JOINT chest
			{
				OFFSET -0.002265 0.056032 0.002855
				CHANNELS 3 Zrotation Yrotation Xrotation
				JOINT lowerneck
				{
					OFFSET -0.013390 0.211636 -0.033468
					CHANNELS 3 Zrotation Yrotation Xrotation
					JOINT upperneck
					{
						OFFSET 0.010113 0.088937 0.050410
						CHANNELS 3 Zrotation Yrotation Xrotation
						End Site
						{
							OFFSET 0.000000 0.000000 0.000000
						}
					}
				}
				JOINT lclavicle
				{
					OFFSET 0.071702 0.114000 -0.018898
					CHANNELS 3 Zrotation Yrotation Xrotation
					JOINT lshoulder
					{
						OFFSET 0.122921 0.045205 -0.019046
						CHANNELS 3 Zrotation Yrotation Xrotation
						JOINT lelbow
						{
							OFFSET 0.255332 -0.015649 -0.022946
							CHANNELS 3 Zrotation Yrotation Xrotation
							JOINT lwrist
							{
								OFFSET 0.265709 0.012698 -0.007375
								CHANNELS 3 Zrotation Yrotation Xrotation
								End Site
								{
									OFFSET 0.000000 0.000000 0.000000
								}
							}
						}
					}
				}
				JOINT rclavicle
				{
					OFFSET -0.082954 0.112472 -0.023707
					CHANNELS 3 Zrotation Yrotation Xrotation
					JOINT rshoulder
					{
						OFFSET -0.113228 0.046853 -0.008472
						CHANNELS 3 Zrotation Yrotation Xrotation
						JOINT relbow
						{
							OFFSET -0.260127 -0.014369 -0.031269
							CHANNELS 3 Zrotation Yrotation Xrotation
							JOINT rwrist
							{
								OFFSET -0.269108 0.006794 -0.006027
								CHANNELS 3 Zrotation Yrotation Xrotation
								End Site
								{
									OFFSET 0.000000 0.000000 0.000000
								}
							}
						}
					}
				}
			}
		}
	}
}
MOTION
Frames: 7
Frame Time: 0.033333
0.207471 0.317737 0.882603 60.340807 -4.525155 98.093969 8.996655 -1.811008 -55.320642 -10.570118 14.003127 64.731179 4.256549 -2.032313 -9.282277 0.000000 -0.000000 0.000000 -1.732176 -8.059152 5.714098 7.109023 6.053258 42.356550 12.499065 11.305224 -8.660245 0.000000 -0.000000 0.000000 -3.727757 16.961034 24.051291 1.926599 -0.246457 -2.305861 1.331562 4.157367 -1.970567 -3.188343 0.909215 -14.421048 -3.879254 -6.773959 -0.678420 -13.387098 8.416432 6.355094 -45.645422 28.138723 -0.057742 -7.782337 -63.051293 20.805624 7.794440 -16.731762 -18.712426 13.893511 10.547726 -5.113280 54.229514 18.081303 11.568723 -106.966696 74.664183 -85.820142 -0.544175 18.480924 -4.702408 
0.329008 0.263191 0.885113 63.732395 -3.499620 98.618896 5.604283 -3.989447 -56.042085 -10.564201 18.879700 47.635442 4.163152 -0.978630 -1.572773 0.000000 -0.000000 0.000000 -1.914020 -7.735471 11.359204 4.742411 9.096101 38.884665 19.498225 10.771701 7.970898 0.000000 -0.000000 0.000000 -4.107574 17.083190 22.190807 2.849016 -1.192684 -1.937028 1.977807 3.771273 -1.742899 -3.428773 -1.394598 -14.401700 -2.258166 -6.171772 -1.446020 -14.848103 9.093070 7.233795 -47.908422 26.918244 2.530790 -10.917600 -68.081223 24.196004 8.570653 -17.475658 -20.841632 16.710270 7.934756 -4.068987 54.722534 14.170788 13.770633 -91.939912 76.862443 -72.534879 0.214698 18.027121 -3.770784 
0.419476 0.225219 0.881671 65.520568 -2.242971 98.922792 2.309161 -6.064414 -53.252914 -11.553456 20.341115 36.365247 4.712368 1.929453 3.214045 0.000000 -0.000000 0.000000 -1.523471 -6.039099 10.809869 2.733715 7.007590 45.346698 15.030923 3.845831 6.956142 0.000000 -0.000000 0.000000 -3.319655 15.333648 20.941005 2.773971 -0.456089 -1.371840 1.691459 3.772492 -1.443015 -3.470689 -3.063316 -15.171796 -1.914651 -4.862675 -1.389669 -17.814621 9.771103 6.632794 -48.927643 24.809356 4.394884 -7.869187 -71.419364 22.184570 9.656762 -16.743058 -22.807421 19.798672 6.625900 -2.676359 53.668407 10.984716 14.608014 -67.251949 75.927986 -50.052361 -0.537499 17.527104 -4.949489 
0.569694 0.165890 0.865019 67.796662 1.467823 97.486721 -3.794543 -6.157453 -45.687155 -10.520581 20.098903 35.605523 14.485209 7.646295 -10.318033 0.000000 -0.000000 0.000000 -3.148690 -4.372548 5.971222 -2.085501 1.016157 63.911226 6.368148 -8.268177 -0.186453 0.000000 -0.000000 0.000000 0.506485 10.480868 22.615976 2.328982 1.772249 -3.345359 1.377452 4.057951 0.444019 -3.415711 -5.269636 -16.802381 -3.308345 -1.320563 -0.401671 -22.687356 10.788976 4.655578 -53.121449 19.151434 5.239256 -1.329311 -74.629841 18.128929 11.048790 -14.591142 -25.908924 23.497643 4.889925 -0.717688 51.218366 6.483469 14.320293 -35.902441 68.055650 -22.992295 -1.227786 16.613051 -4.909658 
0.682477 0.121308 0.849015 71.837445 3.987789 96.750427 -5.562699 -6.580748 -41.520363 -7.984385 18.491239 46.909595 18.993018 12.527222 -23.446817 0.000000 -0.000000 0.000000 -5.183036 -3.504713 -2.732517 -3.132209 -1.454831 79.306577 1.605139 -14.101215 -4.655652 0.000000 -0.000000 0.000000 2.521469 6.572104 24.912337 3.309176 2.524871 -5.755471 1.511150 3.338546 1.883912 -2.636269 -6.015159 -19.305976 -4.562746 0.918718 1.422313 -26.232257 10.650989 1.980216 -56.274391 12.591781 7.720177 3.461281 -76.813458 15.019785 12.396274 -13.223652 -27.338434 26.036048 3.123663 -0.679551 48.910368 2.728854 14.795401 -30.194140 59.862648 -20.324077 -1.785346 15.649049 -4.260427 
0.792257 0.078457 0.841745 76.867564 5.003868 96.357560 -5.916622 -6.785247 -35.069751 -9.473935 14.567122 54.048782 17.854818 14.501892 -30.988467 0.000000 -0.000000 0.000000 -8.334602 -2.409163 -14.973563 -1.663635 -3.249615 89.659570 -0.203999 -16.528514 -9.858898 0.000000 -0.000000 0.000000 3.530929 3.810296 26.111491 4.329658 2.726262 -5.817264 1.288490 1.814106 2.279508 -1.498982 -4.542210 -21.769889 -5.358497 0.271402 2.768052 -28.468655 7.447669 0.304766 -56.881702 4.602133 12.714164 6.139415 -80.884797 12.579297 15.088186 -12.965863 -28.251796 29.248833 0.983803 -0.391770 47.088027 -1.281057 14.245863 -33.426499 54.733694 -26.069945 -4.053323 15.103498 -3.275921 
0.909211 0.036655 0.843911 80.500362 6.313316 94.514854 -5.906127 -1.780288 -23.411149 -11.184906 7.969416 55.633437 14.788723 12.188008 -35.526825 0.000000 -0.000000 0.000000 -10.672109 -2.084821 -25.796483 -1.244063 -3.060324 90.468067 1.010119 -14.062771 -15.217955 0.000000 -0.000000 0.000000 4.834856 0.011475 27.801152 4.413293 2.940901 -5.917973 1.197505 0.708128 2.608226 -1.836840 -2.270486 -20.957067 -4.873018 -0.012817 2.000519 -27.024129 4.186228 0.170166 -57.813506 -1.047895 15.578299 -36.691656 -89.248758 57.493598 16.576874 -13.655385 -29.311885 29.450858 -0.952511 0.180583 48.358396 -5.184200 11.794364 -36.230204 55.484422 -29.924805 -5.180624 14.857382 -4.549934 
